<?xml version="1.0" encoding="UTF-8"?>
<svg version="1.1" xmlns="http://www.w3.org/2000/svg" width="60" height="60">
<path d="M0 0 C19.8 0 39.6 0 60 0 C60 19.8 60 39.6 60 60 C40.2 60 20.4 60 0 60 C0 40.2 0 20.4 0 0 Z " fill="#FBFDFE" transform="translate(0,0)"/>
<path d="M0 0 C3.71835029 4.26516651 5.31709147 6.76799088 5.24072266 12.50341797 C4.74256077 17.66995286 3.14153026 22.59773269 1.6875 27.5625 C1.37876953 28.66013672 1.07003906 29.75777344 0.75195312 30.88867188 C-4.08215413 47.77242752 -4.08215413 47.77242752 -11 52 C-14.10265597 52.60462014 -16.93694838 52.84598568 -20 52 C-24.70088622 47.09668327 -26.66528936 39.63584626 -27.5 33.0625 C-27 30 -27 30 -25.3125 27.5625 C-22.61589191 25.74046751 -21.18873549 25.64569606 -18 26 C-17.32645501 27.43429001 -16.66140299 28.87257057 -16 30.3125 C-15.62875 31.11300781 -15.2575 31.91351563 -14.875 32.73828125 C-14 35 -14 35 -14 38 C-13.34 38 -12.68 38 -12 38 C-12.04125 37.071875 -12.0825 36.14375 -12.125 35.1875 C-12 32 -12 32 -10 29 C-10.99 29 -11.98 29 -13 29 C-12.49396008 26.83125748 -12.00016187 25.00032373 -11 23 C-11.99 23 -12.98 23 -14 23 C-14.25 20.75 -14.25 20.75 -14 18 C-12.70896357 16.6256709 -11.3743291 15.29103643 -10 14 C-9.35180055 11.93461429 -9.35180055 11.93461429 -9 10 C-9.43570313 10.433125 -9.87140625 10.86625 -10.3203125 11.3125 C-15.22603762 15.89967154 -15.22603762 15.89967154 -19.375 16.4375 C-22 16 -22 16 -23 15 C-23.825 15 -24.65 15 -25.5 15 C-26.325 15 -27.15 15 -28 15 C-28.33 14.67 -28.66 14.34 -29 14 C-31.33297433 13.95907063 -33.66705225 13.95758277 -36 14 C-34.34092793 17.31814414 -30.72437851 17.64834232 -27.34765625 18.8046875 C-24.63869403 20.18395944 -24.02679284 21.1953887 -23 24 C-24.60601438 26.45920952 -25.75088924 28.19522576 -28 30 C-34.55776966 30.22612999 -41.08698794 27.75386326 -47 25 C-48.77296637 21.45406726 -48.60893113 17.86290683 -48 14 C-46.16140708 9.53610853 -43.16812682 7.53466501 -38.859375 5.5625 C-27.82493849 1.61827588 -11.41106513 -3.80368838 0 0 Z " fill="#20A2D1" transform="translate(52,5)"/>
<path d="M0 0 C0.66 0 1.32 0 2 0 C1.47838071 3.85998276 0.69053485 5.30946515 -2 8 C-2.72197162 10.60611077 -2.72197162 10.60611077 -3 13 C-2.01 13 -1.02 13 0 13 C-0.66 14.98 -1.32 16.96 -2 19 C-1.01 19 -0.02 19 1 19 C0.34 21.97 -0.32 24.94 -1 28 C-1.66 28 -2.32 28 -3 28 C-4.32 24.37 -5.64 20.74 -7 17 C-12.28774263 16.98601545 -12.28774263 16.98601545 -16 20 C-16 17 -16 17 -14.5 15.3125 C-14.005 14.879375 -13.51 14.44625 -13 14 C-13.68979416 10.80278223 -13.68979416 10.80278223 -16.50390625 9.61328125 C-17.51324219 9.18402344 -18.52257812 8.75476562 -19.5625 8.3125 C-20.57441406 7.87550781 -21.58632813 7.43851563 -22.62890625 6.98828125 C-23.41136719 6.66214844 -24.19382812 6.33601563 -25 6 C-25 5.34 -25 4.68 -25 4 C-22.36 3.67 -19.72 3.34 -17 3 C-17 3.66 -17 4.32 -17 5 C-15.02 4.67 -13.04 4.34 -11 4 C-11 4.66 -11 5.32 -11 6 C-6.06916908 4.86211594 -3.381916 3.75768445 0 0 Z " fill="#E9F6FA" transform="translate(41,15)"/>
<path d="M0 0 C1.670625 0.061875 1.670625 0.061875 3.375 0.125 C3.375 0.455 3.375 0.785 3.375 1.125 C2.446875 1.41375 1.51875 1.7025 0.5625 2 C-2.72291667 3.0125 -2.72291667 3.0125 -5.625 5.125 C-5.625 0.52392493 -4.48911497 0.15479707 0 0 Z " fill="#C8E8F3" transform="translate(30.625,29.875)"/>
</svg>
